<mxfile host="app.diagrams.net" modified="2024-07-30T01:51:40.119Z" agent="Mozilla/5.0 (Macintosh; Intel Mac OS X 10_15_7) AppleWebKit/537.36 (KHTML, like Gecko) Chrome/125.0.0.0 Safari/537.36" etag="unrpDfau6Exdct9B3Lw8" version="24.3.1" type="github">
  <diagram name="Page-1" id="gS1lGw4ghUpdOXam-v53">
    <mxGraphModel dx="830" dy="536" grid="1" gridSize="10" guides="1" tooltips="1" connect="1" arrows="1" fold="1" page="1" pageScale="1" pageWidth="827" pageHeight="1169" math="0" shadow="0">
      <root>
        <mxCell id="0" />
        <mxCell id="1" parent="0" />
        <mxCell id="BJs5YMrsWI-7I0nCcWpp-3" value="&lt;font style=&quot;font-size: 18px;&quot;&gt;&lt;b&gt;Mempool&lt;/b&gt;&lt;/font&gt;" style="rounded=0;whiteSpace=wrap;html=1;" parent="1" vertex="1">
          <mxGeometry x="230" y="120" width="120" height="60" as="geometry" />
        </mxCell>
        <mxCell id="BJs5YMrsWI-7I0nCcWpp-4" value="&lt;font style=&quot;font-size: 18px;&quot;&gt;&lt;b&gt;Builder&lt;/b&gt;&lt;/font&gt;" style="rounded=0;whiteSpace=wrap;html=1;" parent="1" vertex="1">
          <mxGeometry x="380" y="120" width="120" height="60" as="geometry" />
        </mxCell>
        <mxCell id="BJs5YMrsWI-7I0nCcWpp-5" value="&lt;font style=&quot;font-size: 18px;&quot;&gt;&lt;b&gt;Proposer&lt;/b&gt;&lt;/font&gt;" style="rounded=0;whiteSpace=wrap;html=1;" parent="1" vertex="1">
          <mxGeometry x="530" y="120" width="120" height="60" as="geometry" />
        </mxCell>
        <mxCell id="BJs5YMrsWI-7I0nCcWpp-6" value="" style="endArrow=classic;html=1;rounded=0;exitX=1;exitY=0.5;exitDx=0;exitDy=0;" parent="1" source="QJzAAvv34o0oOycXektx-2" edge="1">
          <mxGeometry width="50" height="50" relative="1" as="geometry">
            <mxPoint x="160" y="221" as="sourcePoint" />
            <mxPoint x="280" y="220.5" as="targetPoint" />
          </mxGeometry>
        </mxCell>
        <mxCell id="BJs5YMrsWI-7I0nCcWpp-8" value="" style="rounded=0;whiteSpace=wrap;html=1;" parent="1" vertex="1">
          <mxGeometry x="280" y="191" width="20" height="60" as="geometry" />
        </mxCell>
        <mxCell id="BJs5YMrsWI-7I0nCcWpp-10" value="&lt;font style=&quot;font-size: 15px;&quot;&gt;Transactions created by users are broadcasted to peer nodes&#39; mempool&lt;/font&gt;" style="rounded=0;whiteSpace=wrap;html=1;strokeColor=none;fillColor=none;" parent="1" vertex="1">
          <mxGeometry x="154" y="244" width="120" height="50" as="geometry" />
        </mxCell>
        <mxCell id="BJs5YMrsWI-7I0nCcWpp-11" value="" style="endArrow=classic;html=1;rounded=0;entryX=-0.1;entryY=0.158;entryDx=0;entryDy=0;entryPerimeter=0;" parent="1" edge="1">
          <mxGeometry width="50" height="50" relative="1" as="geometry">
            <mxPoint x="300" y="220" as="sourcePoint" />
            <mxPoint x="428" y="220.51999999999998" as="targetPoint" />
          </mxGeometry>
        </mxCell>
        <mxCell id="BJs5YMrsWI-7I0nCcWpp-12" value="" style="rounded=0;whiteSpace=wrap;html=1;" parent="1" vertex="1">
          <mxGeometry x="430" y="191" width="20" height="200" as="geometry" />
        </mxCell>
        <mxCell id="BJs5YMrsWI-7I0nCcWpp-13" value="&lt;font style=&quot;font-size: 15px;&quot;&gt;Select block body from the pool of transactions&lt;/font&gt;" style="rounded=0;whiteSpace=wrap;html=1;strokeColor=none;fillColor=none;" parent="1" vertex="1">
          <mxGeometry x="304" y="230" width="120" height="40" as="geometry" />
        </mxCell>
        <mxCell id="BJs5YMrsWI-7I0nCcWpp-14" value="&lt;font style=&quot;font-size: 15px;&quot;&gt;Send a header with bid to proposer address&lt;/font&gt;" style="rounded=0;whiteSpace=wrap;html=1;strokeColor=none;fillColor=none;" parent="1" vertex="1">
          <mxGeometry x="454" y="211" width="120" height="40" as="geometry" />
        </mxCell>
        <mxCell id="BJs5YMrsWI-7I0nCcWpp-15" value="" style="endArrow=classic;html=1;rounded=0;entryX=-0.1;entryY=0.158;entryDx=0;entryDy=0;entryPerimeter=0;" parent="1" edge="1">
          <mxGeometry width="50" height="50" relative="1" as="geometry">
            <mxPoint x="450" y="261" as="sourcePoint" />
            <mxPoint x="578" y="261.5" as="targetPoint" />
          </mxGeometry>
        </mxCell>
        <mxCell id="BJs5YMrsWI-7I0nCcWpp-16" value="" style="rounded=0;whiteSpace=wrap;html=1;" parent="1" vertex="1">
          <mxGeometry x="580" y="241" width="20" height="210" as="geometry" />
        </mxCell>
        <mxCell id="BJs5YMrsWI-7I0nCcWpp-17" value="" style="endArrow=classic;html=1;rounded=0;exitX=-0.137;exitY=0.58;exitDx=0;exitDy=0;exitPerimeter=0;" parent="1" edge="1">
          <mxGeometry width="50" height="50" relative="1" as="geometry">
            <mxPoint x="578.26" y="359.00000000000006" as="sourcePoint" />
            <mxPoint x="451" y="359.8" as="targetPoint" />
          </mxGeometry>
        </mxCell>
        <mxCell id="BJs5YMrsWI-7I0nCcWpp-18" value="&lt;font style=&quot;font-size: 15px;&quot;&gt;Select the winning header which has highest bid&lt;/font&gt;" style="rounded=0;whiteSpace=wrap;html=1;strokeColor=none;fillColor=none;" parent="1" vertex="1">
          <mxGeometry x="454" y="301" width="120" height="40" as="geometry" />
        </mxCell>
        <mxCell id="BJs5YMrsWI-7I0nCcWpp-19" value="" style="endArrow=classic;html=1;rounded=0;entryX=0;entryY=0.5;entryDx=0;entryDy=0;exitX=1;exitY=0.864;exitDx=0;exitDy=0;exitPerimeter=0;" parent="1" source="BJs5YMrsWI-7I0nCcWpp-16" target="BJs5YMrsWI-7I0nCcWpp-21" edge="1">
          <mxGeometry width="50" height="50" relative="1" as="geometry">
            <mxPoint x="610" y="421" as="sourcePoint" />
            <mxPoint x="710" y="421" as="targetPoint" />
          </mxGeometry>
        </mxCell>
        <mxCell id="BJs5YMrsWI-7I0nCcWpp-20" value="&lt;font style=&quot;font-size: 18px;&quot;&gt;&lt;b&gt;Chain&lt;/b&gt;&lt;/font&gt;" style="rounded=0;whiteSpace=wrap;html=1;" parent="1" vertex="1">
          <mxGeometry x="680" y="120" width="120" height="60" as="geometry" />
        </mxCell>
        <mxCell id="BJs5YMrsWI-7I0nCcWpp-21" value="" style="rounded=0;whiteSpace=wrap;html=1;" parent="1" vertex="1">
          <mxGeometry x="730" y="391" width="20" height="60" as="geometry" />
        </mxCell>
        <mxCell id="BJs5YMrsWI-7I0nCcWpp-22" value="&lt;font style=&quot;font-size: 15px;&quot;&gt;Proposer check validity of transactions and publish the block&lt;/font&gt;" style="rounded=0;whiteSpace=wrap;html=1;strokeColor=none;fillColor=none;" parent="1" vertex="1">
          <mxGeometry x="600" y="360" width="130" height="40" as="geometry" />
        </mxCell>
        <mxCell id="BJs5YMrsWI-7I0nCcWpp-23" value="&lt;font style=&quot;font-size: 15px;&quot;&gt;The bid gets included in the block to be published&lt;/font&gt;" style="rounded=0;whiteSpace=wrap;html=1;strokeColor=none;fillColor=none;" parent="1" vertex="1">
          <mxGeometry x="454" y="401" width="120" height="40" as="geometry" />
        </mxCell>
        <mxCell id="BJs5YMrsWI-7I0nCcWpp-24" value="" style="endArrow=classic;html=1;rounded=0;entryX=-0.1;entryY=0.158;entryDx=0;entryDy=0;entryPerimeter=0;" parent="1" edge="1">
          <mxGeometry width="50" height="50" relative="1" as="geometry">
            <mxPoint x="450" y="379" as="sourcePoint" />
            <mxPoint x="578" y="379.5" as="targetPoint" />
          </mxGeometry>
        </mxCell>
        <mxCell id="QJzAAvv34o0oOycXektx-1" value="&lt;font style=&quot;font-size: 18px;&quot;&gt;&lt;b&gt;User&lt;/b&gt;&lt;/font&gt;" style="rounded=0;whiteSpace=wrap;html=1;" parent="1" vertex="1">
          <mxGeometry x="80" y="120" width="120" height="60" as="geometry" />
        </mxCell>
        <mxCell id="QJzAAvv34o0oOycXektx-2" value="" style="rounded=0;whiteSpace=wrap;html=1;" parent="1" vertex="1">
          <mxGeometry x="130" y="191" width="20" height="60" as="geometry" />
        </mxCell>
        <mxCell id="QJzAAvv34o0oOycXektx-3" value="&lt;font style=&quot;font-size: 14px;&quot;&gt;Randomly selected&lt;br&gt;by RANDAO&lt;/font&gt;" style="text;html=1;align=center;verticalAlign=middle;resizable=0;points=[];autosize=1;strokeColor=none;fillColor=none;" parent="1" vertex="1">
          <mxGeometry x="520" y="75" width="140" height="50" as="geometry" />
        </mxCell>
      </root>
    </mxGraphModel>
  </diagram>
</mxfile>
